<svg xmlns="http://www.w3.org/2000/svg" viewBox="0 0 520 650" fill="none">
  <defs>
    <linearGradient id="bg" x1="0" y1="0" x2="520" y2="650" gradientUnits="userSpaceOnUse">
      <stop stop-color="#0a0a0a"/>
      <stop offset="1" stop-color="#2a2520"/>
    </linearGradient>
    <linearGradient id="accent" x1="40" y1="120" x2="480" y2="520" gradientUnits="userSpaceOnUse">
      <stop stop-color="#c4b8a8" stop-opacity="0.25"/>
      <stop offset="1" stop-color="#c4b8a8" stop-opacity="0"/>
    </linearGradient>
  </defs>
  <rect width="520" height="650" fill="url(#bg)"/>
  <rect width="520" height="650" fill="url(#accent)"/>
  <rect x="60" y="220" width="400" height="72" rx="36" stroke="#c4b8a8" stroke-opacity="0.35" stroke-width="1.5"/>
  <circle cx="110" cy="256" r="14" stroke="#c4b8a8" stroke-opacity="0.55" stroke-width="1.5"/>
  <line x1="140" y1="256" x2="380" y2="256" stroke="#c4b8a8" stroke-opacity="0.25" stroke-width="1.5"/>
  <rect x="80" y="340" width="360" height="56" rx="12" fill="#ffffff" fill-opacity="0.04" stroke="#ffffff" stroke-opacity="0.08"/>
  <rect x="80" y="420" width="280" height="56" rx="12" fill="#ffffff" fill-opacity="0.04" stroke="#ffffff" stroke-opacity="0.08"/>
  <rect x="80" y="500" width="320" height="56" rx="12" fill="#ffffff" fill-opacity="0.04" stroke="#ffffff" stroke-opacity="0.08"/>
  <circle cx="420" cy="140" r="52" fill="#c4b8a8" fill-opacity="0.12"/>
  <path d="M420 108 C408 108 400 116 400 128 C400 136 404 142 410 146 C406 150 402 158 402 166 L438 166 C438 158 434 150 430 146 C436 142 440 136 440 128 C440 116 432 108 420 108 Z" fill="#c4b8a8" fill-opacity="0.55"/>
  <text x="40" y="580" fill="#f4f0e8" fill-opacity="0.9" font-family="Georgia, serif" font-size="38" font-style="italic">GitHub Finder</text>
  <text x="40" y="610" fill="#c4b8a8" fill-opacity="0.55" font-family="monospace" font-size="11" letter-spacing="3">DEV PROFILES • LIVE DATA</text>
</svg>